<mxfile host="app.diagrams.net" modified="2024-07-18T14:46:11.956Z" agent="Mozilla/5.0 (Macintosh; Intel Mac OS X 10_15_7) AppleWebKit/537.36 (KHTML, like Gecko) Chrome/126.0.0.0 Safari/537.36" version="24.7.1" etag="aY7ado6JVDrPHMiZEwPG" type="github">
  <diagram name="Page-1" id="iT9DaIpaGJqp6n3xvXlG">
    <mxGraphModel>
      <root>
        <mxCell id="0" />
        <mxCell id="1" parent="0" />
      </root>
    </mxGraphModel>
  </diagram>
</mxfile>
